{"accessors" : [{"bufferView" : 0, "byteOffset" : 0, "componentType" : 5123, "count" : 2334, "type" : "SCALAR", "max" : [2213], "min" : [0]}, {"bufferView" : 1, "byteOffset" : 0, "componentType" : 5126, "count" : 2214, "type" : "VEC3", "max" : [5, 7.762639999389648, -0], "min" : [-5, -9.55167007446289, -0.21598300337791443], "name" : "POSITION"}, {"bufferView" : 1, "byteOffset" : 12, "componentType" : 5126, "count" : 2214, "type" : "VEC3", "max" : [1.0000044107437134, 1.0000044107437134, 1.0000044107437134], "min" : [-1.0000044107437134, -1.0000044107437134, -1.0000044107437134], "name" : "NORMAL"}, {"bufferView" : 0, "byteOffset" : 4668, "componentType" : 5123, "count" : 2214, "type" : "SCALAR", "max" : [2051], "min" : [0]}, {"bufferView" : 2, "byteOffset" : 0, "componentType" : 5126, "count" : 2052, "type" : "VEC3", "max" : [4.698480129241943, 0.2831380069255829, 0.3458999991416931], "min" : [-4.582543849945068, -9.23403263092041, -0.3458999991416931], "name" : "POSITION"}, {"bufferView" : 2, "byteOffset" : 12, "componentType" : 5126, "count" : 2052, "type" : "VEC3", "max" : [0, 0.9238806962966919, 1.0000044107437134], "min" : [0, -0.9238806962966919, -1.0000044107437134], "name" : "NORMAL"}, {"bufferView" : 0, "byteOffset" : 9096, "componentType" : 5123, "count" : 114, "type" : "SCALAR", "max" : [110], "min" : [0]}, {"bufferView" : 3, "byteOffset" : 0, "componentType" : 5126, "count" : 111, "type" : "VEC3", "max" : [5, 9.392507553100586, 0], "min" : [-5, 0.4619840085506439, -0.21598300337791443], "name" : "POSITION"}, {"bufferView" : 3, "byteOffset" : 12, "componentType" : 5126, "count" : 111, "type" : "VEC3", "max" : [1.0000044107437134, 1.0000044107437134, 1.0000044107437134], "min" : [-1.0000044107437134, -0, -1.0000044107437134], "name" : "NORMAL"}, {"bufferView" : 0, "byteOffset" : 9324, "componentType" : 5123, "count" : 84, "type" : "SCALAR", "max" : [83], "min" : [0]}, {"bufferView" : 4, "byteOffset" : 0, "componentType" : 5126, "count" : 84, "type" : "VEC3", "max" : [5, 5.352619171142578, 0], "min" : [-5, 0.4619840085506439, -0.21598300337791443], "name" : "POSITION"}, {"bufferView" : 4, "byteOffset" : 12, "componentType" : 5126, "count" : 84, "type" : "VEC3", "max" : [1.0000044107437134, -0, 1.0000044107437134], "min" : [0, -0, -1.0000044107437134], "name" : "NORMAL"}], "asset" : {"generator" : "Aspose.3D 23.9.0", "version" : "2.0"}, "buffers" : [{"uri" : "data:application/octet-stream;base64,", "byteLength" : 123416}], "bufferViews" : [{"buffer" : 0, "byteOffset" : 0, "byteLength" : 9492, "target" : 34963}, {"buffer" : 0, "byteOffset" : 9496, "byteLength" : 56016, "byteStride" : 24, "target" : 34962}, {"buffer" : 0, "byteOffset" : 65516, "byteLength" : 53136, "byteStride" : 24, "target" : 34962}, {"buffer" : 0, "byteOffset" : 118656, "byteLength" : 2736, "byteStride" : 24, "target" : 34962}, {"buffer" : 0, "byteOffset" : 121396, "byteLength" : 2016, "byteStride" : 24, "target" : 34962}], "materials" : [{"name" : "FFFFFF", "pbrMetallicRoughness" : {"baseColorFactor" : [1, 1, 1, 1], "metallicFactor" : 0, "roughnessFactor" : 0.903921569}, "emissiveFactor" : [0, 0, 0], "alphaMode" : "OPAQUE", "doubleSided" : false}, {"name" : "1A1A1A", "pbrMetallicRoughness" : {"baseColorFactor" : [0.101961, 0.101961, 0.101961, 1], "metallicFactor" : 0, "roughnessFactor" : 0.903921569}, "emissiveFactor" : [0, 0, 0], "alphaMode" : "OPAQUE", "doubleSided" : false}, {"name" : "00BCD4", "pbrMetallicRoughness" : {"baseColorFactor" : [0, 0.737255, 0.831373, 1], "metallicFactor" : 0, "roughnessFactor" : 0.903921569}, "emissiveFactor" : [0, 0, 0], "alphaMode" : "OPAQUE", "doubleSided" : false}, {"name" : "455A64", "pbrMetallicRoughness" : {"baseColorFactor" : [0.270588, 0.352941, 0.392157, 1], "metallicFactor" : 0, "roughnessFactor" : 0.903921569}, "emissiveFactor" : [0, 0, 0], "alphaMode" : "OPAQUE", "doubleSided" : false}], "meshes" : [{"primitives" : [{"attributes" : {"POSITION" : 1, "NORMAL" : 2}, "indices" : 0, "material" : 0, "mode" : 4}, {"attributes" : {"POSITION" : 4, "NORMAL" : 5}, "indices" : 3, "material" : 1, "mode" : 4}, {"attributes" : {"POSITION" : 7, "NORMAL" : 8}, "indices" : 6, "material" : 2, "mode" : 4}, {"attributes" : {"POSITION" : 10, "NORMAL" : 11}, "indices" : 9, "material" : 3, "mode" : 4}]}], "nodes" : [{"mesh" : 0, "name" : "Calender_01_Plane.003"}], "scene" : 0, "scenes" : [{"nodes" : [0]}]}