{"accessors" : [{"bufferView" : 0, "byteOffset" : 0, "componentType" : 5123, "count" : 1188, "type" : "SCALAR", "max" : [1137], "min" : [0]}, {"bufferView" : 1, "byteOffset" : 0, "componentType" : 5126, "count" : 1138, "type" : "VEC3", "max" : [0.0067243799567222595, 0.004767084494233131, 0.003910737112164497], "min" : [-0.011433882638812065, -0.004775619599968195, -0.00348075688816607], "name" : "POSITION"}, {"bufferView" : 1, "byteOffset" : 12, "componentType" : 5126, "count" : 1138, "type" : "VEC3", "max" : [1.0000044107437134, 1.0000044107437134, 1.0000044107437134], "min" : [-1.0000044107437134, -1.0000044107437134, -1.0000044107437134], "name" : "NORMAL"}, {"bufferView" : 1, "byteOffset" : 24, "componentType" : 5126, "count" : 1138, "type" : "VEC2", "max" : [0.8747456669807434, 1], "min" : [0.125, 0], "name" : "TEXCOORD_0"}], "asset" : {"generator" : "Aspose.3D 23.9.0", "version" : "2.0"}, "buffers" : [{"uri" : "data:application/octet-stream;base64,", "byteLength" : 40400}], "bufferViews" : [{"buffer" : 0, "byteOffset" : 0, "byteLength" : 2376, "target" : 34963}, {"buffer" : 0, "byteOffset" : 2380, "byteLength" : 38016, "byteStride" : 32, "target" : 34962}], "materials" : [{"name" : "MetalComputerDesk1", "pbrMetallicRoughness" : {"baseColorFactor" : [0.1247718334198, 0.1247718334198, 0.1247718334198, 1], "metallicFactor" : 0.400000005960464, "roughnessFactor" : 0.272165536880493}, "emissiveFactor" : [0, 0, 0], "alphaMode" : "OPAQUE", "doubleSided" : false}], "meshes" : [{"primitives" : [{"attributes" : {"POSITION" : 1, "NORMAL" : 2, "TEXCOORD_0" : 3}, "indices" : 0, "material" : 0, "mode" : 4}]}], "nodes" : [{"matrix" : [100, 0, 0, 0, 0, -1.3435885581891682E-05, -99.99999657714513, 0, 0, 99.99999657714513, -1.3435885581891682E-05, 0, 0, 0, 0, 1], "mesh" : 0, "name" : "ComputerDesk1"}, {"children" : [0], "name" : "RootNode"}], "scene" : 0, "scenes" : [{"nodes" : [1]}]}