{"accessors" : [{"bufferView" : 0, "byteOffset" : 0, "componentType" : 5123, "count" : 924, "type" : "SCALAR", "max" : [902], "min" : [0]}, {"bufferView" : 1, "byteOffset" : 0, "componentType" : 5126, "count" : 903, "type" : "VEC3", "max" : [0.008528148755431175, 0.0022697949316352606, 0.031465884298086166], "min" : [-0.008528148755431175, -0.002990403911098838, 0.0015243857633322477], "name" : "POSITION"}, {"bufferView" : 1, "byteOffset" : 12, "componentType" : 5126, "count" : 903, "type" : "VEC3", "max" : [1.0000044107437134, 1.0000044107437134, 1.0000044107437134], "min" : [-1.0000044107437134, -1.0000044107437134, -1.0000044107437134], "name" : "NORMAL"}, {"bufferView" : 0, "byteOffset" : 1848, "componentType" : 5123, "count" : 1788, "type" : "SCALAR", "max" : [1705], "min" : [0]}, {"bufferView" : 2, "byteOffset" : 0, "componentType" : 5126, "count" : 1706, "type" : "VEC3", "max" : [0.009117057546973228, 0.0027826654259115458, 0.03353085368871689], "min" : [-0.009117057546973228, -0.0035032741725444794, -4.7692614316474646E-05], "name" : "POSITION"}, {"bufferView" : 2, "byteOffset" : 12, "componentType" : 5126, "count" : 1706, "type" : "VEC3", "max" : [1.0000044107437134, 1.0000044107437134, 1.0000044107437134], "min" : [-1.0000044107437134, -1.0000044107437134, -1.0000044107437134], "name" : "NORMAL"}, {"bufferView" : 0, "byteOffset" : 5424, "componentType" : 5123, "count" : 3312, "type" : "SCALAR", "max" : [3162], "min" : [0]}, {"bufferView" : 3, "byteOffset" : 0, "componentType" : 5126, "count" : 3163, "type" : "VEC3", "max" : [0.009209677577018738, 0.002868899144232273, 0.032921887934207916], "min" : [-0.009209677577018738, -0.003775154473260045, -0.0001821935293264687], "name" : "POSITION"}, {"bufferView" : 3, "byteOffset" : 12, "componentType" : 5126, "count" : 3163, "type" : "VEC3", "max" : [1.0000044107437134, 1.0000044107437134, 1.0000044107437134], "min" : [-1.0000044107437134, -1.0000044107437134, -1.0000044107437134], "name" : "NORMAL"}, {"bufferView" : 0, "byteOffset" : 12048, "componentType" : 5123, "count" : 3546, "type" : "SCALAR", "max" : [3414], "min" : [0]}, {"bufferView" : 4, "byteOffset" : 0, "componentType" : 5126, "count" : 3415, "type" : "VEC3", "max" : [0.006239369977265596, 0.00020171626238152385, 0.030020996928215027], "min" : [-0.007012572139501572, -0.0023692355025559664, 0.012595373205840588], "name" : "POSITION"}, {"bufferView" : 4, "byteOffset" : 12, "componentType" : 5126, "count" : 3415, "type" : "VEC3", "max" : [1.0000044107437134, 1.0000044107437134, 1.0000044107437134], "min" : [-1.0000044107437134, -1.0000044107437134, -1.0000044107437134], "name" : "NORMAL"}, {"bufferView" : 0, "byteOffset" : 19140, "componentType" : 5123, "count" : 2286, "type" : "SCALAR", "max" : [2209], "min" : [0]}, {"bufferView" : 5, "byteOffset" : 0, "componentType" : 5126, "count" : 2210, "type" : "VEC3", "max" : [0.007023313082754612, 9.667768608778715E-05, 0.029964065179228783], "min" : [-0.006906867027282715, -0.0022566732950508595, 0.012594282627105713], "name" : "POSITION"}, {"bufferView" : 5, "byteOffset" : 12, "componentType" : 5126, "count" : 2210, "type" : "VEC3", "max" : [1.0000044107437134, 1.0000044107437134, 1.0000044107437134], "min" : [-1.0000044107437134, -3.6037337736161135E-07, -1.0000044107437134], "name" : "NORMAL"}, {"bufferView" : 0, "byteOffset" : 23712, "componentType" : 5123, "count" : 4656, "type" : "SCALAR", "max" : [4445], "min" : [0]}, {"bufferView" : 6, "byteOffset" : 0, "componentType" : 5126, "count" : 4446, "type" : "VEC3", "max" : [0.005528069566935301, 0.00020171671349089593, 0.02970711700618267], "min" : [-0.007012572139501572, -0.0024382586125284433, 0.01253734901547432], "name" : "POSITION"}, {"bufferView" : 6, "byteOffset" : 12, "componentType" : 5126, "count" : 4446, "type" : "VEC3", "max" : [1.0000044107437134, 1.0000044107437134, 1.0000044107437134], "min" : [-1.0000044107437134, -1.0000044107437134, -1.0000044107437134], "name" : "NORMAL"}, {"bufferView" : 0, "byteOffset" : 33024, "componentType" : 5123, "count" : 2376, "type" : "SCALAR", "max" : [2294], "min" : [0]}, {"bufferView" : 7, "byteOffset" : 0, "componentType" : 5126, "count" : 2295, "type" : "VEC3", "max" : [0.007127958349883556, 9.386419696966186E-05, 0.030020996928215027], "min" : [-0.007010728120803833, -0.0024382586125284433, 0.012595375068485737], "name" : "POSITION"}, {"bufferView" : 7, "byteOffset" : 12, "componentType" : 5126, "count" : 2295, "type" : "VEC3", "max" : [1.0000044107437134, 1.0000044107437134, 1.0000044107437134], "min" : [-1.0000044107437134, -1.0000044107437134, -1.0000044107437134], "name" : "NORMAL"}, {"bufferView" : 0, "byteOffset" : 37776, "componentType" : 5123, "count" : 6186, "type" : "SCALAR", "max" : [5942], "min" : [0]}, {"bufferView" : 8, "byteOffset" : 0, "componentType" : 5126, "count" : 5943, "type" : "VEC3", "max" : [0.00704894308000803, 0.00020171671349089593, 0.02970711700618267], "min" : [-0.006717828568071127, -0.00236923573538661, 0.01253734901547432], "name" : "POSITION"}, {"bufferView" : 8, "byteOffset" : 12, "componentType" : 5126, "count" : 5943, "type" : "VEC3", "max" : [1.0000044107437134, 1.0000044107437134, 1.0000044107437134], "min" : [-1.0000044107437134, -1.0000044107437134, -1.0000044107437134], "name" : "NORMAL"}, {"bufferView" : 0, "byteOffset" : 50148, "componentType" : 5123, "count" : 3996, "type" : "SCALAR", "max" : [3863], "min" : [0]}, {"bufferView" : 9, "byteOffset" : 0, "componentType" : 5126, "count" : 3864, "type" : "VEC3", "max" : [0.007143864408135414, 9.386449528392404E-05, 0.030020996928215027], "min" : [-0.005353749729692936, -0.0024382593110203743, 0.012595373205840588], "name" : "POSITION"}, {"bufferView" : 9, "byteOffset" : 12, "componentType" : 5126, "count" : 3864, "type" : "VEC3", "max" : [1.0000044107437134, 1.0000044107437134, 1.0000044107437134], "min" : [-1.0000044107437134, -1.0000044107437134, -1.0000044107437134], "name" : "NORMAL"}, {"bufferView" : 0, "byteOffset" : 58140, "componentType" : 5123, "count" : 1014, "type" : "SCALAR", "max" : [977], "min" : [0]}, {"bufferView" : 10, "byteOffset" : 0, "componentType" : 5126, "count" : 978, "type" : "VEC3", "max" : [0.003023201134055853, 0.00020171642245259136, 0.027615580707788467], "min" : [-0.006450760178267956, -0.0024382593110203743, 0.012610712088644505], "name" : "POSITION"}, {"bufferView" : 10, "byteOffset" : 12, "componentType" : 5126, "count" : 978, "type" : "VEC3", "max" : [1.0000044107437134, 1.0000044107437134, 1.0000044107437134], "min" : [-1.0000044107437134, -1.0000044107437134, -1.0000044107437134], "name" : "NORMAL"}, {"bufferView" : 0, "byteOffset" : 60168, "componentType" : 5123, "count" : 132, "type" : "SCALAR", "max" : [124], "min" : [0]}, {"bufferView" : 11, "byteOffset" : 0, "componentType" : 5126, "count" : 125, "type" : "VEC3", "max" : [6.471901087934384E-06, 1.41057697078395E-07, 0.004106713458895683], "min" : [-0.00752921961247921, -0.00026157614775002003, -0.004162847995758057], "name" : "POSITION"}, {"bufferView" : 11, "byteOffset" : 12, "componentType" : 5126, "count" : 125, "type" : "VEC3", "max" : [1.0000044107437134, 1.0000044107437134, 1.0000044107437134], "min" : [-1.0000044107437134, -1.0000044107437134, -1.0000044107437134], "name" : "NORMAL"}, {"bufferView" : 0, "byteOffset" : 60432, "componentType" : 5123, "count" : 1248, "type" : "SCALAR", "max" : [1225], "min" : [0]}, {"bufferView" : 12, "byteOffset" : 0, "componentType" : 5126, "count" : 1226, "type" : "VEC3", "max" : [-0.006301427260041237, -0.00016630813479423523, 0.001146682188846171], "min" : [-0.006598480045795441, -0.0007069677230902016, -0.0010492339497432113], "name" : "POSITION"}, {"bufferView" : 12, "byteOffset" : 12, "componentType" : 5126, "count" : 1226, "type" : "VEC3", "max" : [0.9488874673843384, 0.9490344524383545, 0.9995453953742981], "min" : [-0.9488915205001831, -0.9661809802055359, -0.9995455145835876], "name" : "NORMAL"}, {"bufferView" : 0, "byteOffset" : 62928, "componentType" : 5123, "count" : 132, "type" : "SCALAR", "max" : [129], "min" : [0]}, {"bufferView" : 13, "byteOffset" : 0, "componentType" : 5126, "count" : 130, "type" : "VEC3", "max" : [0.00752921961247921, 1.38897661372539E-07, 0.004106713458895683], "min" : [-6.471881988545647E-06, -0.0002615782432258129, -0.004162847995758057], "name" : "POSITION"}, {"bufferView" : 13, "byteOffset" : 12, "componentType" : 5126, "count" : 130, "type" : "VEC3", "max" : [1.0000044107437134, 1.0000044107437134, 1.0000044107437134], "min" : [-1.0000044107437134, -1.0000044107437134, -1.0000044107437134], "name" : "NORMAL"}, {"bufferView" : 0, "byteOffset" : 63192, "componentType" : 5123, "count" : 1248, "type" : "SCALAR", "max" : [1223], "min" : [0]}, {"bufferView" : 14, "byteOffset" : 0, "componentType" : 5126, "count" : 1224, "type" : "VEC3", "max" : [0.006598480045795441, -0.0001663117582211271, 0.001146682188846171], "min" : [0.006301427260041237, -0.0007069712737575173, -0.0010492339497432113], "name" : "POSITION"}, {"bufferView" : 14, "byteOffset" : 12, "componentType" : 5126, "count" : 1224, "type" : "VEC3", "max" : [0.9488915801048279, 0.9490342736244202, 0.9995455145835876], "min" : [-0.9488875269889832, -0.9661810994148254, -0.9995455145835876], "name" : "NORMAL"}], "asset" : {"generator" : "Aspose.3D 23.9.0", "version" : "2.0"}, "buffers" : [{"uri" : "data:application/octet-stream;base64,", "byteLength" : 854004}], "bufferViews" : [{"buffer" : 0, "byteOffset" : 0, "byteLength" : 65688, "target" : 34963}, {"buffer" : 0, "byteOffset" : 65692, "byteLength" : 22176, "byteStride" : 24, "target" : 34962}, {"buffer" : 0, "byteOffset" : 87872, "byteLength" : 42912, "byteStride" : 24, "target" : 34962}, {"buffer" : 0, "byteOffset" : 130788, "byteLength" : 79488, "byteStride" : 24, "target" : 34962}, {"buffer" : 0, "byteOffset" : 210280, "byteLength" : 85104, "byteStride" : 24, "target" : 34962}, {"buffer" : 0, "byteOffset" : 295388, "byteLength" : 54864, "byteStride" : 24, "target" : 34962}, {"buffer" : 0, "byteOffset" : 350256, "byteLength" : 111744, "byteStride" : 24, "target" : 34962}, {"buffer" : 0, "byteOffset" : 462004, "byteLength" : 57024, "byteStride" : 24, "target" : 34962}, {"buffer" : 0, "byteOffset" : 519032, "byteLength" : 148464, "byteStride" : 24, "target" : 34962}, {"buffer" : 0, "byteOffset" : 667500, "byteLength" : 95904, "byteStride" : 24, "target" : 34962}, {"buffer" : 0, "byteOffset" : 763408, "byteLength" : 24336, "byteStride" : 24, "target" : 34962}, {"buffer" : 0, "byteOffset" : 787748, "byteLength" : 3168, "byteStride" : 24, "target" : 34962}, {"buffer" : 0, "byteOffset" : 790920, "byteLength" : 29952, "byteStride" : 24, "target" : 34962}, {"buffer" : 0, "byteOffset" : 820876, "byteLength" : 3168, "byteStride" : 24, "target" : 34962}, {"buffer" : 0, "byteOffset" : 824048, "byteLength" : 29952, "byteStride" : 24, "target" : 34962}], "materials" : [{"name" : "Wood1", "pbrMetallicRoughness" : {"baseColorFactor" : [0.156788468360901, 0.0994393527507782, 0.052679181098938, 1], "metallicFactor" : 0.400000005960464, "roughnessFactor" : 0.415087103843689}, "emissiveFactor" : [0, 0, 0], "alphaMode" : "OPAQUE", "doubleSided" : false}, {"name" : "Wood2", "pbrMetallicRoughness" : {"baseColorFactor" : [0.143087148666382, 0.0860678479075432, 0.0409014187753201, 1], "metallicFactor" : 0.400000005960464, "roughnessFactor" : 0.415087103843689}, "emissiveFactor" : [0, 0, 0], "alphaMode" : "OPAQUE", "doubleSided" : false}, {"name" : "DarkWood", "pbrMetallicRoughness" : {"baseColorFactor" : [0.117848873138428, 0.0752861574292183, 0.0403904505074024, 1], "metallicFactor" : 0.400000005960464, "roughnessFactor" : 0.415087103843689}, "emissiveFactor" : [0, 0, 0], "alphaMode" : "OPAQUE", "doubleSided" : false}, {"name" : "Cover1", "pbrMetallicRoughness" : {"baseColorFactor" : [0.125944241881371, 0.022057119756937, 0.0153393391519785, 1], "metallicFactor" : 0.400000005960464, "roughnessFactor" : 0.415087103843689}, "emissiveFactor" : [0, 0, 0], "alphaMode" : "OPAQUE", "doubleSided" : false}, {"name" : "Pages", "pbrMetallicRoughness" : {"baseColorFactor" : [0.474056631326675, 0.413306295871735, 0.233254104852676, 1], "metallicFactor" : 0.400000005960464, "roughnessFactor" : 0.415087103843689}, "emissiveFactor" : [0, 0, 0], "alphaMode" : "OPAQUE", "doubleSided" : false}, {"name" : "Cover6", "pbrMetallicRoughness" : {"baseColorFactor" : [0.0375674441456795, 0.00685170525684953, 0.0139232026413083, 1], "metallicFactor" : 0.400000005960464, "roughnessFactor" : 0.415087103843689}, "emissiveFactor" : [0, 0, 0], "alphaMode" : "OPAQUE", "doubleSided" : false}, {"name" : "Cover2", "pbrMetallicRoughness" : {"baseColorFactor" : [0.0142858028411865, 0.0136526962742209, 0.0417724698781967, 1], "metallicFactor" : 0.400000005960464, "roughnessFactor" : 0.415087103843689}, "emissiveFactor" : [0, 0, 0], "alphaMode" : "OPAQUE", "doubleSided" : false}, {"name" : "Cover3", "pbrMetallicRoughness" : {"baseColorFactor" : [0.261097759008408, 0.160169273614883, 0.0408239923417568, 1], "metallicFactor" : 0.400000005960464, "roughnessFactor" : 0.415087103843689}, "emissiveFactor" : [0, 0, 0], "alphaMode" : "OPAQUE", "doubleSided" : false}, {"name" : "Cover4", "pbrMetallicRoughness" : {"baseColorFactor" : [0.0292549040168524, 0.0317419841885567, 0.00842205714434385, 1], "metallicFactor" : 0.400000005960464, "roughnessFactor" : 0.415087103843689}, "emissiveFactor" : [0, 0, 0], "alphaMode" : "OPAQUE", "doubleSided" : false}, {"name" : "Cover5", "pbrMetallicRoughness" : {"baseColorFactor" : [0.00933170411735773, 0.0127950208261609, 0.00612027244642377, 1], "metallicFactor" : 0.400000005960464, "roughnessFactor" : 0.415087103843689}, "emissiveFactor" : [0, 0, 0], "alphaMode" : "OPAQUE", "doubleSided" : false}, {"name" : "DarkWood", "pbrMetallicRoughness" : {"baseColorFactor" : [0.117848873138428, 0.0752861574292183, 0.0403904505074024, 1], "metallicFactor" : 0.400000005960464, "roughnessFactor" : 0.415087103843689}, "emissiveFactor" : [0, 0, 0], "alphaMode" : "OPAQUE", "doubleSided" : false}, {"name" : "Metal", "pbrMetallicRoughness" : {"baseColorFactor" : [0.242556020617485, 0.189678832888603, 0.0649528950452805, 1], "metallicFactor" : 0.400000005960464, "roughnessFactor" : 0.415087103843689}, "emissiveFactor" : [0, 0, 0], "alphaMode" : "OPAQUE", "doubleSided" : false}, {"name" : "DarkWood", "pbrMetallicRoughness" : {"baseColorFactor" : [0.117848873138428, 0.0752861574292183, 0.0403904505074024, 1], "metallicFactor" : 0.400000005960464, "roughnessFactor" : 0.415087103843689}, "emissiveFactor" : [0, 0, 0], "alphaMode" : "OPAQUE", "doubleSided" : false}, {"name" : "Metal", "pbrMetallicRoughness" : {"baseColorFactor" : [0.242556020617485, 0.189678832888603, 0.0649528950452805, 1], "metallicFactor" : 0.400000005960464, "roughnessFactor" : 0.415087103843689}, "emissiveFactor" : [0, 0, 0], "alphaMode" : "OPAQUE", "doubleSided" : false}], "meshes" : [{"primitives" : [{"attributes" : {"POSITION" : 1, "NORMAL" : 2}, "indices" : 0, "material" : 0, "mode" : 4}, {"attributes" : {"POSITION" : 4, "NORMAL" : 5}, "indices" : 3, "material" : 1, "mode" : 4}, {"attributes" : {"POSITION" : 7, "NORMAL" : 8}, "indices" : 6, "material" : 2, "mode" : 4}, {"attributes" : {"POSITION" : 10, "NORMAL" : 11}, "indices" : 9, "material" : 3, "mode" : 4}, {"attributes" : {"POSITION" : 13, "NORMAL" : 14}, "indices" : 12, "material" : 4, "mode" : 4}, {"attributes" : {"POSITION" : 16, "NORMAL" : 17}, "indices" : 15, "material" : 5, "mode" : 4}, {"attributes" : {"POSITION" : 19, "NORMAL" : 20}, "indices" : 18, "material" : 6, "mode" : 4}, {"attributes" : {"POSITION" : 22, "NORMAL" : 23}, "indices" : 21, "material" : 7, "mode" : 4}, {"attributes" : {"POSITION" : 25, "NORMAL" : 26}, "indices" : 24, "material" : 8, "mode" : 4}, {"attributes" : {"POSITION" : 28, "NORMAL" : 29}, "indices" : 27, "material" : 9, "mode" : 4}]}, {"primitives" : [{"attributes" : {"POSITION" : 31, "NORMAL" : 32}, "indices" : 30, "material" : 10, "mode" : 4}, {"attributes" : {"POSITION" : 34, "NORMAL" : 35}, "indices" : 33, "material" : 11, "mode" : 4}]}, {"primitives" : [{"attributes" : {"POSITION" : 37, "NORMAL" : 38}, "indices" : 36, "material" : 12, "mode" : 4}, {"attributes" : {"POSITION" : 40, "NORMAL" : 41}, "indices" : 39, "material" : 13, "mode" : 4}]}], "nodes" : [{"matrix" : [100, 0, 0, 0, 0, -1.3435885581891682E-05, -99.99999657714513, 0, 0, 99.99999657714513, -1.3435885581891682E-05, 0, 0.00423396937549114, 0, 0.000340759754180908, 1], "mesh" : 0, "name" : "BookCase_Single"}, {"matrix" : [100, 0, 0, 0, 0, -1.3435885581891682E-05, -99.99999657714513, 0, 0, 99.99999657714513, -1.3435885581891682E-05, 0, 0.774680852890015, 0.587766945362091, 0.298940360546112, 1], "mesh" : 1, "name" : "BookCase_RightDoor"}, {"matrix" : [100, 0, 0, 0, 0, -1.3435885581891682E-05, -99.99999657714513, 0, 0, 99.99999657714513, -1.3435885581891682E-05, 0, -0.77044689655304, 0.587766945362091, 0.298940241336823, 1], "mesh" : 2, "name" : "BookCase_LeftDoor"}, {"children" : [0, 1, 2], "name" : "RootNode"}], "scene" : 0, "scenes" : [{"nodes" : [3]}]}