{"accessors" : [{"bufferView" : 0, "byteOffset" : 0, "componentType" : 5123, "count" : 552, "type" : "SCALAR", "max" : [551], "min" : [0]}, {"bufferView" : 1, "byteOffset" : 0, "componentType" : 5126, "count" : 552, "type" : "VEC3", "max" : [1.7713019847869873, 11.1417875289917, 1.7713019847869873], "min" : [-1.7713019847869873, 0, -1.7713019847869873], "name" : "POSITION"}, {"bufferView" : 1, "byteOffset" : 12, "componentType" : 5126, "count" : 552, "type" : "VEC3", "max" : [0.9270135164260864, 0.9987884163856506, 0.9986520409584045], "min" : [-0.998324453830719, -1.0000044107437134, -0.9270139932632446], "name" : "NORMAL"}, {"bufferView" : 1, "byteOffset" : 24, "componentType" : 5126, "count" : 552, "type" : "VEC2", "max" : [0.9881370067596436, 0.9859049916267395], "min" : [0.009556000120937824, 0.03150400146842003], "name" : "TEXCOORD_0"}], "asset" : {"generator" : "Aspose.3D 23.9.0", "version" : "2.0"}, "buffers" : [{"uri" : "data:application/octet-stream;base64,", "byteLength" : 18776}], "bufferViews" : [{"buffer" : 0, "byteOffset" : 0, "byteLength" : 1104, "target" : 34963}, {"buffer" : 0, "byteOffset" : 1108, "byteLength" : 17664, "byteStride" : 32, "target" : 34962}], "images" : [{"uri" : "data:image/png;base64,"}], "materials" : [{"name" : "lambert2SG", "pbrMetallicRoughness" : {"baseColorFactor" : [1, 1, 1, 1], "baseColorTexture" : {"index" : 0, "texCoord" : 0}, "metallicFactor" : 0, "roughnessFactor" : 1}, "emissiveFactor" : [0, 0, 0], "alphaMode" : "OPAQUE", "doubleSided" : false}], "meshes" : [{"primitives" : [{"attributes" : {"POSITION" : 1, "NORMAL" : 2, "TEXCOORD_0" : 3}, "indices" : 0, "material" : 0, "mode" : 4}]}], "nodes" : [{"mesh" : 0, "name" : "Microphone_mesh"}], "samplers" : [{"magFilter" : 9729, "minFilter" : 9986, "wrapS" : 10497, "wrapT" : 10497}], "scene" : 0, "scenes" : [{"nodes" : [0]}], "textures" : [{"sampler" : 0, "source" : 0, "name" : ""}]}