{"accessors" : [{"bufferView" : 0, "byteOffset" : 0, "componentType" : 5123, "count" : 114, "type" : "SCALAR", "max" : [108], "min" : [0]}, {"bufferView" : 1, "byteOffset" : 0, "componentType" : 5126, "count" : 109, "type" : "VEC3", "max" : [0.0010513168526813388, 0.00014495414507109672, 0.002281080698594451], "min" : [-0.0010513168526813388, -0.00014495414507109672, -0.002275806851685047], "name" : "POSITION"}, {"bufferView" : 1, "byteOffset" : 12, "componentType" : 5126, "count" : 109, "type" : "VEC3", "max" : [0, 1.0000044107437134, 7.474670837837039E-08], "min" : [0, -1.0000044107437134, -5.170898731421403E-08], "name" : "NORMAL"}, {"bufferView" : 0, "byteOffset" : 228, "componentType" : 5123, "count" : 156, "type" : "SCALAR", "max" : [145], "min" : [0]}, {"bufferView" : 2, "byteOffset" : 0, "componentType" : 5126, "count" : 146, "type" : "VEC3", "max" : [0.0010513168526813388, 0.00014495414507109672, 0.002281080698594451], "min" : [-0.0010513168526813388, -0.0001597920199856162, -0.002275806851685047], "name" : "POSITION"}, {"bufferView" : 2, "byteOffset" : 12, "componentType" : 5126, "count" : 146, "type" : "VEC3", "max" : [1.0000044107437134, 0, 1.0000044107437134], "min" : [-1.0000044107437134, -1.0000044107437134, -1.0000044107437134], "name" : "NORMAL"}, {"bufferView" : 0, "byteOffset" : 540, "componentType" : 5123, "count" : 402, "type" : "SCALAR", "max" : [371], "min" : [0]}, {"bufferView" : 3, "byteOffset" : 0, "componentType" : 5126, "count" : 372, "type" : "VEC3", "max" : [0.0010804807534441352, 9.003800369100645E-05, 0.001952508231624961], "min" : [-0.0009671851876191795, -0.0001597920199856162, -0.002285329857841134], "name" : "POSITION"}, {"bufferView" : 3, "byteOffset" : 12, "componentType" : 5126, "count" : 372, "type" : "VEC3", "max" : [1.0000044107437134, 1.0000044107437134, 1.0000044107437134], "min" : [-1.0000044107437134, -1.0000044107437134, -1.0000044107437134], "name" : "NORMAL"}], "asset" : {"generator" : "Aspose.3D 23.9.0", "version" : "2.0"}, "buffers" : [{"uri" : "data:application/octet-stream;base64,", "byteLength" : 17488}], "bufferViews" : [{"buffer" : 0, "byteOffset" : 0, "byteLength" : 1344, "target" : 34963}, {"buffer" : 0, "byteOffset" : 1348, "byteLength" : 2736, "byteStride" : 24, "target" : 34962}, {"buffer" : 0, "byteOffset" : 4088, "byteLength" : 3744, "byteStride" : 24, "target" : 34962}, {"buffer" : 0, "byteOffset" : 7836, "byteLength" : 9648, "byteStride" : 24, "target" : 34962}], "materials" : [{"name" : "White", "pbrMetallicRoughness" : {"baseColorFactor" : [0.55855005979538, 0.55855005979538, 0.55855005979538, 1], "metallicFactor" : 0.400000005960464, "roughnessFactor" : 0.415087103843689}, "emissiveFactor" : [0, 0, 0], "alphaMode" : "OPAQUE", "doubleSided" : false}, {"name" : "Grey", "pbrMetallicRoughness" : {"baseColorFactor" : [0.113917268812656, 0.113917268812656, 0.113917268812656, 1], "metallicFactor" : 0.400000005960464, "roughnessFactor" : 0.415087103843689}, "emissiveFactor" : [0, 0, 0], "alphaMode" : "OPAQUE", "doubleSided" : false}, {"name" : "Black", "pbrMetallicRoughness" : {"baseColorFactor" : [0.0264810919761658, 0.0264810919761658, 0.0264810919761658, 1], "metallicFactor" : 0.400000005960464, "roughnessFactor" : 0.415087103843689}, "emissiveFactor" : [0, 0, 0], "alphaMode" : "OPAQUE", "doubleSided" : false}], "meshes" : [{"primitives" : [{"attributes" : {"POSITION" : 1, "NORMAL" : 2}, "indices" : 0, "material" : 0, "mode" : 4}, {"attributes" : {"POSITION" : 4, "NORMAL" : 5}, "indices" : 3, "material" : 1, "mode" : 4}, {"attributes" : {"POSITION" : 7, "NORMAL" : 8}, "indices" : 6, "material" : 2, "mode" : 4}]}], "nodes" : [{"matrix" : [198.94319152832, 0, 0, 0, 0, -2.6729779586708703E-05, -198.94318471878327, 0, 0, 198.94318471878327, -2.6729779586708703E-05, 0, 0, 0, 0, 1], "mesh" : 0, "name" : "Phone"}, {"children" : [0], "name" : "RootNode"}], "scene" : 0, "scenes" : [{"nodes" : [1]}]}