{"accessors" : [{"bufferView" : 0, "byteOffset" : 0, "componentType" : 5123, "count" : 1554, "type" : "SCALAR", "max" : [1510], "min" : [0]}, {"bufferView" : 1, "byteOffset" : 0, "componentType" : 5126, "count" : 1511, "type" : "VEC3", "max" : [0.0017068104352802038, 0.002922660671174526, -0.00013879309699404985], "min" : [5.451118340715766E-05, 3.690988053389743E-12, -0.0013253219658508897], "name" : "POSITION"}, {"bufferView" : 1, "byteOffset" : 12, "componentType" : 5126, "count" : 1511, "type" : "VEC3", "max" : [1.0000044107437134, 1.0000044107437134, 1.0000044107437134], "min" : [-1.0000044107437134, -1.0000044107437134, -1.0000044107437134], "name" : "NORMAL"}, {"bufferView" : 1, "byteOffset" : 24, "componentType" : 5126, "count" : 1511, "type" : "VEC2", "max" : [0.6683803200721741, 0.9538818597793579], "min" : [0.04116344451904297, 0.02980828285217285], "name" : "TEXCOORD_0"}], "asset" : {"generator" : "Aspose.3D 23.9.0", "version" : "2.0"}, "buffers" : [{"uri" : "data:application/octet-stream;base64,", "byteLength" : 52844}], "bufferViews" : [{"buffer" : 0, "byteOffset" : 0, "byteLength" : 3108, "target" : 34963}, {"buffer" : 0, "byteOffset" : 3112, "byteLength" : 49728, "byteStride" : 32, "target" : 34962}], "images" : [{"uri" : "data:image/png;base64,"}], "materials" : [{"name" : "Material", "pbrMetallicRoughness" : {"baseColorFactor" : [1, 1, 1, 1], "baseColorTexture" : {"index" : 0, "texCoord" : 0}, "metallicFactor" : 0.400000005960464, "roughnessFactor" : 0.272165536880493}, "emissiveFactor" : [0, 0, 0], "alphaMode" : "OPAQUE", "doubleSided" : false}], "meshes" : [{"primitives" : [{"attributes" : {"POSITION" : 1, "NORMAL" : 2, "TEXCOORD_0" : 3}, "indices" : 0, "material" : 0, "mode" : 4}]}], "nodes" : [{"matrix" : [100, 0, 0, 0, 0, 99.9999999999999, 4.3711388286738005E-06, 0, 0, -4.3711388286738005E-06, 99.9999999999999, 0, 0, 0, 0, 1], "mesh" : 0, "name" : "Trophy"}, {"children" : [0], "name" : "RootNode"}], "samplers" : [{"magFilter" : 9728, "minFilter" : 9728, "wrapS" : 10497, "wrapT" : 10497}], "scene" : 0, "scenes" : [{"nodes" : [1]}], "textures" : [{"sampler" : 0, "source" : 0, "name" : ""}]}